<svg width="12" height="10" viewBox="0 0 12 10" fill="none" xmlns="http://www.w3.org/2000/svg">
<path d="M11.8817 4.64727C10.5856 1.91699 8.62639 0.542969 6.00002 0.542969C3.37228 0.542969 1.41447 1.91699 0.118377 4.64863C0.0663905 4.75871 0.0394287 4.87894 0.0394287 5.00068C0.0394287 5.12242 0.0663905 5.24265 0.118377 5.35273C1.41447 8.08301 3.37365 9.45703 6.00002 9.45703C8.62775 9.45703 10.5856 8.08301 11.8817 5.35137C11.9869 5.12988 11.9869 4.87285 11.8817 4.64727ZM6.00002 8.47266C3.79474 8.47266 2.1801 7.3543 1.04123 5C2.1801 2.6457 3.79474 1.52734 6.00002 1.52734C8.20529 1.52734 9.81994 2.6457 10.9588 5C9.82131 7.3543 8.20666 8.47266 6.00002 8.47266Z" fill="#989FA6"/>
<path d="M5.9453 2.59375C4.61639 2.59375 3.53905 3.67109 3.53905 5C3.53905 6.32891 4.61639 7.40625 5.9453 7.40625C7.27421 7.40625 8.35155 6.32891 8.35155 5C8.35155 3.67109 7.27421 2.59375 5.9453 2.59375ZM5.9453 6.53125C5.09901 6.53125 4.41405 5.84629 4.41405 5C4.41405 4.15371 5.09901 3.46875 5.9453 3.46875C6.79159 3.46875 7.47655 4.15371 7.47655 5C7.47655 5.84629 6.79159 6.53125 5.9453 6.53125Z" fill="#989FA6"/>
</svg>
