<svg width="165" height="19" viewBox="0 0 165 19" fill="none" xmlns="http://www.w3.org/2000/svg">
<path d="M9.756 18.36C8.02 18.36 6.488 18.004 5.16 17.292C3.832 16.58 2.796 15.572 2.052 14.268C1.308 12.964 0.936 11.424 0.936 9.648C0.936 8.352 1.152 7.168 1.584 6.096C2.024 5.016 2.64 4.084 3.432 3.3C4.232 2.516 5.172 1.912 6.252 1.488C7.34 1.056 8.528 0.839999 9.816 0.839999C11.216 0.839999 12.392 1.016 13.344 1.368C14.296 1.72 15.156 2.22 15.924 2.868L13.932 6.144C13.468 5.664 12.908 5.308 12.252 5.076C11.596 4.836 10.872 4.716 10.08 4.716C9.296 4.716 8.596 4.832 7.98 5.064C7.372 5.288 6.852 5.612 6.42 6.036C5.996 6.46 5.672 6.972 5.448 7.572C5.224 8.172 5.112 8.844 5.112 9.588C5.112 10.612 5.312 11.488 5.712 12.216C6.12 12.944 6.7 13.504 7.452 13.896C8.204 14.28 9.104 14.472 10.152 14.472C10.904 14.472 11.648 14.36 12.384 14.136C13.128 13.904 13.832 13.532 14.496 13.02L16.32 16.368C15.544 16.968 14.616 17.452 13.536 17.82C12.456 18.18 11.196 18.36 9.756 18.36ZM18.7378 18V1.2H25.5538C26.8018 1.2 27.8898 1.404 28.8178 1.812C29.7538 2.212 30.4738 2.796 30.9778 3.564C31.4898 4.332 31.7458 5.252 31.7458 6.324C31.7458 7.148 31.5898 7.876 31.2778 8.508C30.9658 9.132 30.5378 9.652 29.9938 10.068C29.4498 10.484 28.8338 10.796 28.1458 11.004L32.6698 18H27.9418L24.1978 11.82H22.7218V18H18.7378ZM22.7218 8.628H25.0738C25.9058 8.628 26.5538 8.464 27.0178 8.136C27.4898 7.808 27.7258 7.288 27.7258 6.576C27.7258 5.856 27.5018 5.328 27.0538 4.992C26.6138 4.648 25.9818 4.476 25.1578 4.476H22.7218V8.628ZM33.3184 18L39.5944 1.2H44.2144L50.5504 18H46.0624L44.8744 14.592H38.8504L37.6864 18H33.3184ZM39.7504 11.268H43.9504L41.8384 5.46L39.7504 11.268ZM52.605 18V1.2H63.669V4.836H56.589V8.304H62.925V11.796H56.589V18H52.605ZM69.8539 18V4.836H65.3779V1.2H78.3379V4.836H73.8619V18H69.8539ZM80.7769 18V1.2H84.6049L90.9889 11.796L89.4049 11.808L95.4769 1.2H99.2929V18H95.4289L95.5009 6.288L96.2089 6.54L91.3609 14.832H88.7089L83.6689 6.54L84.3529 6.288L84.4249 18H80.7769ZM103.253 18V1.2H115.061V4.656H107.237V7.776H113.801V10.968H107.237V14.508H115.157V18H103.253ZM118.488 18V1.2H125.304C126.552 1.2 127.64 1.404 128.568 1.812C129.504 2.212 130.224 2.796 130.728 3.564C131.24 4.332 131.496 5.252 131.496 6.324C131.496 7.148 131.34 7.876 131.028 8.508C130.716 9.132 130.288 9.652 129.744 10.068C129.2 10.484 128.584 10.796 127.896 11.004L132.42 18H127.692L123.948 11.82H122.472V18H118.488ZM122.472 8.628H124.824C125.656 8.628 126.304 8.464 126.768 8.136C127.24 7.808 127.476 7.288 127.476 6.576C127.476 5.856 127.252 5.328 126.804 4.992C126.364 4.648 125.732 4.476 124.908 4.476H122.472V8.628ZM143.154 18.36C141.858 18.36 140.638 18.16 139.494 17.76C138.35 17.36 137.342 16.784 136.47 16.032C135.606 15.272 134.926 14.352 134.43 13.272C133.934 12.192 133.686 10.972 133.686 9.612C133.686 8.26 133.922 7.048 134.394 5.976C134.874 4.896 135.538 3.972 136.386 3.204C137.234 2.436 138.218 1.852 139.338 1.452C140.458 1.044 141.662 0.839999 142.95 0.839999C143.542 0.839999 144.162 0.887999 144.81 0.983999C145.458 1.072 146.118 1.232 146.79 1.464C147.462 1.696 148.122 2.024 148.77 2.448L147.114 5.532C146.538 5.156 145.926 4.88 145.278 4.704C144.63 4.52 143.942 4.428 143.214 4.428C142.374 4.428 141.618 4.548 140.946 4.788C140.274 5.028 139.702 5.376 139.23 5.832C138.766 6.28 138.41 6.824 138.162 7.464C137.914 8.104 137.79 8.828 137.79 9.636C137.79 10.796 138.038 11.768 138.534 12.552C139.03 13.328 139.702 13.916 140.55 14.316C141.398 14.708 142.346 14.904 143.394 14.904C143.81 14.904 144.206 14.868 144.582 14.796C144.958 14.724 145.29 14.64 145.578 14.544V11.568H142.146V8.4H149.07V16.968C148.566 17.256 147.966 17.504 147.27 17.712C146.582 17.92 145.874 18.08 145.146 18.192C144.426 18.304 143.762 18.36 143.154 18.36ZM152.8 18V1.2H164.608V4.656H156.784V7.776H163.348V10.968H156.784V14.508H164.704V18H152.8Z" fill="#231C09"/>
</svg>
