<svg width="50" height="47" viewBox="0 0 50 47" fill="none" xmlns="http://www.w3.org/2000/svg">
<path fill-rule="evenodd" clip-rule="evenodd" d="M49.1971 0.586051C49.3762 0.754406 49.4561 0.994646 49.4108 1.2289L47.9553 8.75367C47.9523 8.76917 47.9488 8.78457 47.9447 8.79985C47.5366 10.3343 46.2888 12.1641 44.4085 13.0964C43.452 13.5707 42.3307 13.8117 41.0941 13.6524C40.0351 13.5159 38.9306 13.0913 37.8011 12.3244L36.4618 13.5834C36.1604 13.8667 35.6716 13.8667 35.3702 13.5834C35.0688 13.3 35.0688 12.8406 35.3702 12.5573L36.7051 11.3025C35.8228 10.1835 35.3243 9.10372 35.1509 8.07893C34.9493 6.88812 35.1951 5.81804 35.7144 4.91427C36.7337 3.14054 38.7784 2.0409 40.5101 1.75305L48.5133 0.385241C48.7625 0.34265 49.018 0.417695 49.1971 0.586051ZM38.9093 11.2827C39.7895 11.8443 40.5921 12.123 41.3037 12.2147C42.1911 12.329 42.9893 12.1595 43.6883 11.8129C45.1105 11.1077 46.1151 9.66737 46.4411 8.46987L47.4499 3.25457L42.1459 8.24035H43.9211C44.3474 8.24035 44.6929 8.56519 44.6929 8.96591C44.6929 9.36663 44.3474 9.69148 43.9211 9.69148L40.6021 9.69148L38.9093 11.2827ZM41.0543 7.21424L46.3583 2.22847L40.7804 3.18178C39.4197 3.4075 37.8269 4.2915 37.0727 5.60394C36.7051 6.24361 36.5302 6.99272 36.6754 7.85092C36.7947 8.55534 37.1351 9.36335 37.8105 10.2634L39.5105 8.66537V5.54556C39.5105 5.14484 39.8561 4.81999 40.2824 4.81999C40.7087 4.81999 41.0543 5.14484 41.0543 5.54556V7.21424Z" fill="#CECECE"/>
<path fill-rule="evenodd" clip-rule="evenodd" d="M0.866067 46.1362C1.04517 46.3046 1.30074 46.3796 1.54994 46.337L9.55501 44.9689C9.5715 44.9661 9.58788 44.9627 9.60414 44.9589C11.2366 44.5753 13.1832 43.4024 14.175 41.6349C14.6795 40.7358 14.9359 39.6818 14.7664 38.5193C14.6213 37.5239 14.1695 36.4856 13.3537 35.4239L14.693 34.165C14.9944 33.8816 14.9944 33.4222 14.693 33.1389C14.3916 32.8555 13.9028 32.8555 13.6014 33.1389L12.2665 34.3937C11.0761 33.5644 9.9274 33.0958 8.8372 32.9327C7.57039 32.7433 6.432 32.9743 5.47055 33.4625C3.5836 34.4206 2.41378 36.3426 2.10756 37.9704L0.65244 45.4934C0.60713 45.7276 0.686965 45.9679 0.866067 46.1362ZM12.2455 36.4657C12.8429 37.293 13.1394 38.0475 13.2369 38.7164C13.3585 39.5506 13.1782 40.3008 12.8095 40.9579C12.0593 42.2948 10.527 43.2391 9.2531 43.5456L3.70492 44.4938L9.00892 39.508V41.1767C9.00892 41.5774 9.35451 41.9023 9.7808 41.9023C10.2071 41.9023 10.5527 41.5774 10.5527 41.1767L10.5527 38.0569L12.2455 36.4657ZM7.91732 38.4819L2.61332 43.4677L3.62748 38.2245C3.86761 36.9454 4.80803 35.4482 6.20424 34.7392C6.88474 34.3937 7.68166 34.2293 8.59464 34.3658C9.34403 34.4779 10.2036 34.7979 11.1611 35.4328L9.46108 37.0308H6.14213C5.71584 37.0308 5.37026 37.3556 5.37026 37.7564C5.37026 38.1571 5.71584 38.4819 6.14213 38.4819H7.91732Z" fill="#CECECE"/>
<path fill-rule="evenodd" clip-rule="evenodd" d="M49.1339 46.1362C48.9548 46.3046 48.6993 46.3796 48.4501 46.337L40.445 44.9689C40.4285 44.9661 40.4121 44.9627 40.3959 44.9589C38.7634 44.5753 36.8168 43.4024 35.825 41.6349C35.3205 40.7358 35.0641 39.6818 35.2336 38.5193C35.3787 37.5239 35.8305 36.4856 36.6463 35.4239L35.307 34.165C35.0056 33.8816 35.0056 33.4222 35.307 33.1389C35.6084 32.8555 36.0972 32.8555 36.3986 33.1389L37.7335 34.3937C38.9239 33.5644 40.0726 33.0958 41.1628 32.9327C42.4296 32.7433 43.568 32.9743 44.5294 33.4625C46.4164 34.4206 47.5862 36.3426 47.8924 37.9704L49.3476 45.4934C49.3929 45.7276 49.313 45.9679 49.1339 46.1362ZM37.7545 36.4657C37.1571 37.293 36.8606 38.0475 36.7631 38.7164C36.6415 39.5506 36.8218 40.3008 37.1905 40.9579C37.9407 42.2948 39.473 43.2391 40.7469 43.5456L46.2951 44.4938L40.9911 39.508V41.1767C40.9911 41.5774 40.6455 41.9023 40.2192 41.9023C39.7929 41.9023 39.4473 41.5774 39.4473 41.1767V38.0569L37.7545 36.4657ZM42.0827 38.4819L47.3867 43.4677L46.3725 38.2245C46.1324 36.9454 45.192 35.4482 43.7958 34.7392C43.1153 34.3937 42.3183 34.2293 41.4054 34.3658C40.656 34.4779 39.7964 34.7979 38.8389 35.4328L40.5389 37.0308H43.8579C44.2842 37.0308 44.6297 37.3556 44.6297 37.7564C44.6297 38.1571 44.2842 38.4819 43.8579 38.4819H42.0827Z" fill="#CECECE"/>
<path fill-rule="evenodd" clip-rule="evenodd" d="M0.739656 0.645452C0.560555 0.813807 0.480719 1.05405 0.526029 1.2883L1.9815 8.81307C1.98449 8.82857 1.98803 8.84397 1.99209 8.85925C2.4002 10.3937 3.64799 12.2235 5.52825 13.1558C6.4848 13.6301 7.60609 13.8711 8.8427 13.7118C9.90166 13.5753 11.0062 13.1507 12.1357 12.3838L13.475 13.6428C13.7764 13.9261 14.2652 13.9261 14.5666 13.6428C14.868 13.3594 14.868 12.9 14.5666 12.6167L13.2317 11.3619C14.114 10.2429 14.6125 9.16312 14.7859 8.13833C14.9875 6.94752 14.7417 5.87744 14.2223 4.97367C13.2031 3.19994 11.1584 2.1003 9.42668 1.81245L1.42353 0.444642C1.17433 0.402051 0.918757 0.477096 0.739656 0.645452ZM11.0275 11.3421C10.1473 11.9037 9.34471 12.1824 8.6331 12.2741C7.74564 12.3884 6.94753 12.2189 6.24849 11.8723C4.82627 11.1671 3.82167 9.72677 3.49567 8.52927L2.48691 3.31398L7.79091 8.29975H6.01572C5.58942 8.29975 5.24384 8.62459 5.24384 9.02531C5.24384 9.42603 5.58943 9.75088 6.01572 9.75088L9.33467 9.75088L11.0275 11.3421ZM8.88251 7.27364L3.57851 2.28787L9.15638 3.24118C10.5171 3.4669 12.1099 4.3509 12.8641 5.66334C13.2317 6.30301 13.4066 7.05212 13.2613 7.91032C13.1421 8.61474 12.8016 9.42275 12.1262 10.3228L10.4263 8.72477V5.60496C10.4263 5.20424 10.0807 4.8794 9.65439 4.8794C9.22809 4.8794 8.88251 5.20424 8.88251 5.60496V7.27364Z" fill="#CECECE"/>
<path fill-rule="evenodd" clip-rule="evenodd" d="M26.2735 22.1344C25.5702 21.4732 24.4298 21.4732 23.7265 22.1344C23.0231 22.7955 23.0231 23.8675 23.7265 24.5286C24.4298 25.1898 25.5702 25.1898 26.2735 24.5286C26.9769 23.8675 26.9769 22.7955 26.2735 22.1344ZM22.6349 21.1083C23.9411 19.8804 26.0589 19.8804 27.3651 21.1083C28.6714 22.3361 28.6714 24.3269 27.3651 25.5547C26.0589 26.7826 23.9411 26.7826 22.6349 25.5547C21.3286 24.3269 21.3286 22.3361 22.6349 21.1083Z" fill="#CECECE"/>
<path fill-rule="evenodd" clip-rule="evenodd" d="M29.5483 19.0561C29.8498 19.3394 29.8498 19.7988 29.5483 20.0822L27.3651 22.1344C27.0637 22.4177 26.575 22.4177 26.2735 22.1344C25.9721 21.851 25.9721 21.3916 26.2735 21.1083L28.4567 19.0561C28.7582 18.7727 29.2469 18.7727 29.5483 19.0561Z" fill="#CECECE"/>
<path fill-rule="evenodd" clip-rule="evenodd" d="M23.7265 24.5286C24.0279 24.812 24.0279 25.2714 23.7265 25.5548L21.5433 27.607C21.2418 27.8903 20.7531 27.8903 20.4517 27.607C20.1502 27.3236 20.1502 26.8642 20.4517 26.5809L22.6349 24.5286C22.9363 24.2453 23.425 24.2453 23.7265 24.5286Z" fill="#CECECE"/>
<path fill-rule="evenodd" clip-rule="evenodd" d="M26.2735 24.5286C26.575 24.2453 27.0637 24.2453 27.3651 24.5287L29.5483 26.5809C29.8498 26.8642 29.8498 27.3236 29.5483 27.607C29.2469 27.8903 28.7582 27.8903 28.4567 27.607L26.2735 25.5548C25.9721 25.2714 25.9721 24.812 26.2735 24.5286Z" fill="#CECECE"/>
<path fill-rule="evenodd" clip-rule="evenodd" d="M20.4517 19.0561C20.7531 18.7727 21.2418 18.7727 21.5433 19.0561L23.7265 21.1083C24.0279 21.3917 24.0279 21.851 23.7265 22.1344C23.425 22.4177 22.9363 22.4178 22.6349 22.1344L20.4517 20.0822C20.1502 19.7988 20.1502 19.3394 20.4517 19.0561Z" fill="#CECECE"/>
<path fill-rule="evenodd" clip-rule="evenodd" d="M29.2055 25.25C28.3366 25.0656 27.7147 25.2261 27.3651 25.5547C27.0156 25.8833 26.8447 26.4679 27.0409 27.2847C27.2346 28.0908 27.7711 29.0147 28.6387 29.8302C29.5062 30.6457 30.4891 31.15 31.3466 31.332C32.2155 31.5165 32.8374 31.3559 33.187 31.0273C33.5365 30.6987 33.7074 30.1141 33.5112 29.2973C33.3175 28.4912 32.781 27.5674 31.9135 26.7519C31.0459 25.9364 30.0631 25.432 29.2055 25.25ZM29.5456 23.8345C30.7293 24.0858 31.9635 24.7467 33.0051 25.7258C34.0466 26.7048 34.7497 27.865 35.017 28.9777C35.2817 30.0797 35.1348 31.2486 34.2786 32.0534C33.4224 32.8582 32.1789 32.9964 31.0066 32.7475C29.8228 32.4963 28.5886 31.8353 27.5471 30.8563C26.5055 29.8772 25.8024 28.717 25.5351 27.6043C25.2704 26.5023 25.4173 25.3334 26.2735 24.5286C27.1297 23.7238 28.3732 23.5857 29.5456 23.8345Z" fill="#CECECE"/>
<path fill-rule="evenodd" clip-rule="evenodd" d="M22.959 27.2846C23.1552 26.4679 22.9844 25.8833 22.6349 25.5547C22.2853 25.2261 21.6634 25.0655 20.7945 25.2499C19.9369 25.4319 18.9541 25.9363 18.0865 26.7518C17.219 27.5673 16.6824 28.4912 16.4888 29.2972C16.2926 30.114 16.4634 30.6986 16.813 31.0272C17.1625 31.3558 17.7845 31.5164 18.6534 31.332C19.5109 31.1499 20.4938 30.6456 21.3613 29.8301C22.2289 29.0146 22.7654 28.0907 22.959 27.2846ZM24.4649 27.6043C24.1976 28.717 23.4945 29.8772 22.4529 30.8562C21.4114 31.8353 20.1771 32.4962 18.9934 32.7474C17.8211 32.9963 16.5776 32.8582 15.7214 32.0533C14.8652 31.2485 14.7182 30.0796 14.983 28.9776C15.2503 27.8649 15.9534 26.7047 16.9949 25.7257C18.0365 24.7466 19.2707 24.0857 20.4544 23.8344C21.6268 23.5856 22.8703 23.7238 23.7265 24.5286C24.5827 25.3334 24.7296 26.5023 24.4649 27.6043Z" fill="#CECECE"/>
<path fill-rule="evenodd" clip-rule="evenodd" d="M33.5112 17.3656C33.7074 16.5488 33.5365 15.9642 33.187 15.6356C32.8374 15.3071 32.2155 15.1465 31.3466 15.3309C30.4891 15.5129 29.5062 16.0173 28.6387 16.8328C27.7711 17.6483 27.2346 18.5721 27.0409 19.3782C26.8447 20.195 27.0156 20.7797 27.3651 21.1083C27.7147 21.4368 28.3366 21.5974 29.2055 21.4129C30.063 21.2309 31.0459 20.7266 31.9135 19.9111C32.781 19.0956 33.3175 18.1717 33.5112 17.3656ZM35.017 17.6852C34.7497 18.7979 34.0466 19.9581 33.0051 20.9372C31.9635 21.9162 30.7293 22.5772 29.5455 22.8284C28.3732 23.0773 27.1297 22.9392 26.2735 22.1344C25.4173 21.3295 25.2704 20.1606 25.5351 19.0586C25.8024 17.9459 26.5055 16.7857 27.5471 15.8067C28.5886 14.8276 29.8228 14.1667 31.0066 13.9154C32.1789 13.6666 33.4224 13.8047 34.2786 14.6095C35.1348 15.4144 35.2817 16.5832 35.017 17.6852Z" fill="#CECECE"/>
<path fill-rule="evenodd" clip-rule="evenodd" d="M18.6534 15.331C17.7845 15.1466 17.1626 15.3071 16.813 15.6357C16.4635 15.9643 16.2926 16.5489 16.4888 17.3657C16.6825 18.1718 17.219 19.0956 18.0865 19.9112C18.9541 20.7267 19.937 21.231 20.7945 21.413C21.6634 21.5974 22.2853 21.4368 22.6349 21.1083C22.9844 20.7797 23.1553 20.1951 22.9591 19.3783C22.7654 18.5722 22.2289 17.6483 21.3613 16.8328C20.4938 16.0173 19.5109 15.513 18.6534 15.331ZM18.9934 13.9155C20.1772 14.1667 21.4114 14.8277 22.4529 15.8067C23.4945 16.7858 24.1976 17.946 24.4649 19.0587C24.7296 20.1607 24.5827 21.3295 23.7265 22.1344C22.8703 22.9392 21.6268 23.0773 20.4545 22.8285C19.2707 22.5772 18.0365 21.9163 16.9949 20.9373C15.9534 19.9582 15.2503 18.798 14.983 17.6853C14.7183 16.5833 14.8652 15.4144 15.7214 14.6096C16.5776 13.8048 17.8211 13.6667 18.9934 13.9155Z" fill="#CECECE"/>
<path fill-rule="evenodd" clip-rule="evenodd" d="M25.7651 2.18345C25.4336 1.56031 25.1185 1.45113 25 1.45113C24.8815 1.45113 24.5664 1.56031 24.2349 2.18345C23.9266 2.7632 23.7135 3.61488 23.7135 4.59525C23.7135 5.57562 23.9266 6.4273 24.2349 7.00705C24.5664 7.63019 24.8815 7.73937 25 7.73937C25.1185 7.73937 25.4336 7.63019 25.7651 7.00705C26.0735 6.4273 26.2865 5.57562 26.2865 4.59525C26.2865 3.61488 26.0735 2.7632 25.7651 2.18345ZM27.1459 1.53449C27.5825 2.35529 27.8302 3.43845 27.8302 4.59525C27.8302 5.75205 27.5825 6.83521 27.1459 7.65601C26.7323 8.43342 26.0183 9.1905 25 9.1905C23.9817 9.1905 23.2677 8.43342 22.8541 7.65601C22.4176 6.83521 22.1698 5.75205 22.1698 4.59525C22.1698 3.43845 22.4176 2.35529 22.8541 1.53449C23.2677 0.757081 23.9817 -4.18393e-08 25 0C26.0183 4.18393e-08 26.7323 0.757081 27.1459 1.53449Z" fill="#CECECE"/>
<path fill-rule="evenodd" clip-rule="evenodd" d="M26.7408 14.9966C26.7404 14.0976 25.9646 13.3683 25.0082 13.3679C24.0523 13.3675 23.2779 14.0955 23.2783 14.994L23.2792 16.8763C23.2793 17.2771 22.9339 17.602 22.5076 17.6022C22.0813 17.6024 21.7356 17.2777 21.7354 16.8769L21.7346 14.9946C21.7338 13.2942 23.1998 11.9161 25.0088 11.9168C26.8173 11.9175 28.2838 13.296 28.2845 14.996L28.2854 16.8417C28.2855 17.2424 27.9401 17.5674 27.5138 17.5675C27.0875 17.5677 26.7418 17.243 26.7416 16.8423L26.7408 14.9966Z" fill="#CECECE"/>
<path fill-rule="evenodd" clip-rule="evenodd" d="M2.32282 24.2191C1.6599 23.9076 1.54376 23.6114 1.54376 23.5C1.54376 23.3886 1.6599 23.0924 2.32282 22.7808C2.93957 22.4909 3.84562 22.2907 4.88856 22.2907C5.9315 22.2907 6.83755 22.4909 7.4543 22.7808C8.11722 23.0924 8.23336 23.3886 8.23336 23.5C8.23336 23.6114 8.11722 23.9076 7.4543 24.2191C6.83755 24.509 5.9315 24.7093 4.88856 24.7093C3.84562 24.7093 2.93957 24.509 2.32282 24.2191ZM1.63243 25.5171C2.50563 25.9275 3.65792 26.1604 4.88856 26.1604C6.1192 26.1604 7.27149 25.9275 8.14469 25.5171C8.97171 25.1284 9.77712 24.4571 9.77712 23.5C9.77712 22.5428 8.97171 21.8716 8.14469 21.4829C7.27149 21.0725 6.1192 20.8396 4.88856 20.8396C3.65792 20.8396 2.50563 21.0725 1.63243 21.4829C0.805405 21.8716 0 22.5428 0 23.5C0 24.4571 0.805405 25.1284 1.63243 25.5171Z" fill="#CECECE"/>
<path fill-rule="evenodd" clip-rule="evenodd" d="M15.9538 25.1363C14.9974 25.1359 14.2216 24.4067 14.2212 23.5077C14.2208 22.6091 14.9952 21.8812 15.951 21.8816L17.9535 21.8824C18.3798 21.8825 18.7255 21.5578 18.7257 21.1571C18.7259 20.7564 18.3805 20.4314 17.9542 20.4312L15.9517 20.4305C14.1427 20.4297 12.6767 21.8078 12.6774 23.5083C12.6782 25.2082 14.1447 26.5867 15.9531 26.5874L17.9166 26.5882C18.3429 26.5884 18.6887 26.2637 18.6888 25.863C18.689 25.4622 18.3436 25.1373 17.9173 25.1371L15.9538 25.1363Z" fill="#CECECE"/>
<path fill-rule="evenodd" clip-rule="evenodd" d="M47.6772 22.7809C48.3401 23.0924 48.4562 23.3886 48.4562 23.5C48.4562 23.6114 48.3401 23.9076 47.6772 24.2192C47.0604 24.5091 46.1544 24.7093 45.1114 24.7093C44.0685 24.7093 43.1625 24.5091 42.5457 24.2192C41.8828 23.9076 41.7666 23.6114 41.7666 23.5C41.7666 23.3886 41.8828 23.0924 42.5457 22.7809C43.1625 22.491 44.0685 22.2907 45.1114 22.2907C46.1544 22.2907 47.0604 22.491 47.6772 22.7809ZM48.3676 21.4829C47.4944 21.0725 46.3421 20.8396 45.1114 20.8396C43.8808 20.8396 42.7285 21.0725 41.8553 21.4829C41.0283 21.8716 40.2229 22.5429 40.2229 23.5C40.2229 24.4572 41.0283 25.1284 41.8553 25.5171C42.7285 25.9275 43.8808 26.1604 45.1114 26.1604C46.3421 26.1604 47.4944 25.9275 48.3676 25.5171C49.1946 25.1284 50 24.4572 50 23.5C50 22.5429 49.1946 21.8716 48.3676 21.4829Z" fill="#CECECE"/>
<path fill-rule="evenodd" clip-rule="evenodd" d="M34.0462 21.8637C35.0026 21.8641 35.7784 22.5933 35.7788 23.4923C35.7792 24.3909 35.0048 25.1188 34.049 25.1184L32.0465 25.1176C31.6202 25.1175 31.2745 25.4422 31.2743 25.8429C31.2741 26.2436 31.6195 26.5686 32.0458 26.5688L34.0483 26.5695C35.8573 26.5703 37.3233 25.1922 37.3226 23.4917C37.3218 21.7918 35.8553 20.4133 34.0469 20.4126L32.0834 20.4118C31.6571 20.4116 31.3113 20.7363 31.3112 21.137C31.311 21.5378 31.6564 21.8627 32.0827 21.8629L34.0462 21.8637Z" fill="#CECECE"/>
<path fill-rule="evenodd" clip-rule="evenodd" d="M24.2349 44.8165C24.5664 45.4397 24.8815 45.5489 25 45.5489C25.1185 45.5489 25.4336 45.4397 25.7651 44.8165C26.0734 44.2368 26.2865 43.3851 26.2865 42.4048C26.2865 41.4244 26.0734 40.5727 25.7651 39.993C25.4336 39.3698 25.1185 39.2606 25 39.2606C24.8815 39.2606 24.5664 39.3698 24.2349 39.993C23.9265 40.5727 23.7135 41.4244 23.7135 42.4048C23.7135 43.3851 23.9265 44.2368 24.2349 44.8165ZM22.8541 45.4655C22.4175 44.6447 22.1698 43.5616 22.1698 42.4048C22.1698 41.2479 22.4175 40.1648 22.8541 39.344C23.2677 38.5666 23.9817 37.8095 25 37.8095C26.0183 37.8095 26.7323 38.5666 27.1458 39.344C27.5824 40.1648 27.8302 41.2479 27.8302 42.4048C27.8302 43.5616 27.5824 44.6447 27.1458 45.4655C26.7323 46.2429 26.0183 47 25 47C23.9817 47 23.2677 46.2429 22.8541 45.4655Z" fill="#CECECE"/>
<path fill-rule="evenodd" clip-rule="evenodd" d="M23.2592 32.0034C23.2596 32.9024 24.0354 33.6317 24.9918 33.6321C25.9477 33.6325 26.7221 32.9045 26.7217 32.006L26.7208 30.1237C26.7207 29.7229 27.0661 29.398 27.4924 29.3978C27.9187 29.3976 28.2644 29.7223 28.2646 30.1231L28.2654 32.0054C28.2662 33.7058 26.8002 35.0839 24.9912 35.0832C23.1827 35.0825 21.7162 33.704 21.7155 32.004L21.7146 30.1583C21.7145 29.7576 22.0599 29.4326 22.4862 29.4325C22.9125 29.4323 23.2582 29.757 23.2584 30.1577L23.2592 32.0034Z" fill="#CECECE"/>
</svg>
