<svg width="165" height="22" viewBox="0 0 165 22" fill="none" xmlns="http://www.w3.org/2000/svg">
<path d="M0.592 6.2182H1.392V4.1622H2.84C3.928 4.1622 4.544 3.4102 4.544 2.5222C4.544 1.6342 3.936 0.8822 2.84 0.8822H0.592V6.2182ZM3.72 2.5222C3.72 3.0822 3.312 3.4582 2.736 3.4582H1.392V1.5862H2.736C3.312 1.5862 3.72 1.9622 3.72 2.5222ZM6.95206 6.3142C8.16006 6.3142 8.90406 5.4022 8.90406 4.2822C8.90406 3.1702 8.16006 2.2582 6.95206 2.2582C5.75206 2.2582 5.00006 3.1702 5.00006 4.2822C5.00006 5.4022 5.75206 6.3142 6.95206 6.3142ZM6.95206 5.6742C6.18406 5.6742 5.75206 5.0182 5.75206 4.2822C5.75206 3.5542 6.18406 2.8982 6.95206 2.8982C7.72806 2.8982 8.15206 3.5542 8.15206 4.2822C8.15206 5.0182 7.72806 5.6742 6.95206 5.6742ZM9.44219 5.6902C9.81019 6.0742 10.3702 6.3142 11.0982 6.3142C12.1702 6.3142 12.7862 5.8342 12.7862 5.1782C12.7862 4.5542 12.1622 4.2742 11.7382 4.2422C12.1702 4.1782 12.7062 3.8582 12.7062 3.3062C12.7062 2.6502 12.0582 2.2582 11.0262 2.2662C10.3542 2.2662 9.85819 2.5222 9.51419 2.8982L9.87419 3.3382C10.1782 3.0102 10.5622 2.8502 11.0582 2.8502C11.5862 2.8502 11.9542 3.0742 11.9542 3.3942C11.9542 3.7862 11.5942 3.9702 11.0262 3.9702H10.3702V4.5542H11.0262C11.6342 4.5542 12.0262 4.7062 12.0262 5.1222C12.0262 5.4822 11.6902 5.7302 11.0982 5.7302C10.6022 5.7302 10.1862 5.5222 9.84219 5.1942L9.44219 5.6902ZM14.421 7.6902V5.6582C14.733 6.0822 15.181 6.3142 15.685 6.3142C16.693 6.3142 17.405 5.5462 17.405 4.2822C17.405 3.0182 16.693 2.2582 15.685 2.2582C15.165 2.2582 14.701 2.5222 14.421 2.9062V2.3542H13.701V7.6902H14.421ZM16.653 4.2822C16.653 5.0902 16.213 5.6742 15.493 5.6742C15.053 5.6742 14.613 5.4102 14.421 5.1062V3.4662C14.613 3.1542 15.053 2.8982 15.493 2.8982C16.213 2.8982 16.653 3.4822 16.653 4.2822ZM20.0302 6.3142C21.2382 6.3142 21.9822 5.4022 21.9822 4.2822C21.9822 3.1702 21.2382 2.2582 20.0302 2.2582C18.8302 2.2582 18.0782 3.1702 18.0782 4.2822C18.0782 5.4022 18.8302 6.3142 20.0302 6.3142ZM20.0302 5.6742C19.2622 5.6742 18.8302 5.0182 18.8302 4.2822C18.8302 3.5542 19.2622 2.8982 20.0302 2.8982C20.8062 2.8982 21.2302 3.5542 21.2302 4.2822C21.2302 5.0182 20.8062 5.6742 20.0302 5.6742ZM22.6643 3.9302C22.6643 5.3702 23.3923 6.3142 24.6083 6.3142C25.8323 6.3142 26.5523 5.3702 26.5523 4.2742C26.5523 3.2582 25.8323 2.3862 24.7363 2.3862C24.1123 2.3862 23.5443 2.6902 23.2243 3.2022C23.3603 2.3862 23.8483 1.8102 25.1363 1.6022L26.1443 1.4342V0.7942L25.1283 0.9542C23.2963 1.2342 22.6643 2.2262 22.6643 3.9302ZM25.8083 4.2662C25.8083 5.0182 25.3843 5.6742 24.6083 5.6742C23.8403 5.6742 23.4083 5.0182 23.4083 4.2662C23.4083 3.5542 23.8403 2.8982 24.6083 2.8982C25.3843 2.8982 25.8083 3.5542 25.8083 4.2662ZM26.9565 5.6022V6.3142C27.7485 6.3142 28.3165 5.7542 28.4925 3.3222L28.5245 2.9862H29.9965V6.2182H30.7165V2.3542H27.8845L27.8205 3.2902C27.6685 5.1222 27.3645 5.6022 26.9565 5.6022ZM31.6251 4.2822C31.6251 5.4982 32.4731 6.3142 33.6251 6.3142C34.2491 6.3142 34.7931 6.1142 35.1771 5.7382L34.8411 5.2662C34.5531 5.5622 34.1051 5.7222 33.6971 5.7222C32.9211 5.7222 32.4411 5.1782 32.3851 4.5222H35.4411V4.3462C35.4411 3.1622 34.7211 2.2582 33.5611 2.2582C32.4331 2.2582 31.6251 3.1622 31.6251 4.2822ZM33.5611 2.8502C34.3771 2.8502 34.7211 3.4902 34.7371 4.0022H32.3771C32.4171 3.4742 32.7851 2.8502 33.5611 2.8502ZM36.3416 6.2182H37.0616V4.5542H38.9496V6.2182H39.6696V2.3542H38.9496V3.9222H37.0616V2.3542H36.3416V6.2182ZM42.5302 6.3142C43.7382 6.3142 44.4822 5.4022 44.4822 4.2822C44.4822 3.1702 43.7382 2.2582 42.5302 2.2582C41.3302 2.2582 40.5782 3.1702 40.5782 4.2822C40.5782 5.4022 41.3302 6.3142 42.5302 6.3142ZM42.5302 5.6742C41.7622 5.6742 41.3302 5.0182 41.3302 4.2822C41.3302 3.5542 41.7622 2.8982 42.5302 2.8982C43.3062 2.8982 43.7302 3.5542 43.7302 4.2822C43.7302 5.0182 43.3062 5.6742 42.5302 5.6742ZM47.4588 6.2182H49.5468C50.4428 6.2182 50.8668 5.7862 50.8668 5.1702C50.8668 4.7222 50.5628 4.3222 50.1468 4.2262C50.4988 4.1222 50.7948 3.8102 50.7948 3.3462C50.7948 2.7782 50.3708 2.3542 49.5228 2.3542H47.4588V6.2182ZM50.0588 3.4582C50.0588 3.7222 49.8668 3.9222 49.5228 3.9222H48.1788V2.9862H49.5228C49.8588 2.9862 50.0588 3.1782 50.0588 3.4582ZM50.1228 5.0742C50.1228 5.3942 49.9068 5.5862 49.5468 5.5862H48.1788V4.5542H49.5468C49.9308 4.5542 50.1228 4.8022 50.1228 5.0742Z" fill="white"/>
<g clip-path="url(#clip0_5883_20926)">
<path d="M39.7546 10.5016H46.7586V11.5235H43.8244V19.7132H42.6752V11.5235H39.7546V10.5016ZM72.0687 14.4654H66.6703V10.5016H65.5211V19.7132H66.6703V15.4873H72.0687V19.7132H73.2179V10.5016H72.0687V14.4654ZM60.5411 18.8575C58.5198 18.8575 56.9839 17.2971 56.9839 15.1151C56.9839 12.9331 58.5207 11.3727 60.5411 11.3727C61.5935 11.3727 62.548 11.9392 63.0741 12.7126L64.0432 12.1741C63.3096 11.1386 62.174 10.3508 60.5411 10.3508C57.8832 10.3508 55.793 12.2843 55.793 15.1151C55.793 17.9459 57.8832 19.8794 60.5411 19.8794C62.1749 19.8794 63.2815 19.106 64.0567 18.0561L63.0741 17.5176C62.548 18.3046 61.5926 18.8575 60.5411 18.8575ZM48.2864 19.7132H54.335V18.6913H49.4347V15.5145H54.2381V14.4926H49.4347V11.5235H54.335V10.5016H48.2864V19.7132ZM9.69006 14.7627C9.69006 17.457 7.52112 19.6418 4.84503 19.6418C2.16894 19.6418 0 17.457 0 14.7627C0 12.0684 2.16894 9.88363 4.84503 9.88363C7.52112 9.88363 9.69006 12.0684 9.69006 14.7627ZM8.01649 14.7627C8.01649 14.3236 7.16521 13.9486 5.96708 13.8023C6.70788 13.645 7.21049 13.3369 7.21049 12.9818C7.21049 12.4677 6.15092 12.0503 4.84503 12.0503C3.53914 12.0503 2.47957 12.4677 2.47957 12.9818C2.47957 13.336 2.98309 13.6441 3.72298 13.8023C2.52576 13.9486 1.67357 14.3236 1.67357 14.7627C1.67357 15.2018 2.52485 15.5768 3.72298 15.7232C2.98218 15.8804 2.47957 16.1885 2.47957 16.5436C2.47957 17.0577 3.53914 17.4751 4.84503 17.4751C6.15092 17.4751 7.21049 17.0577 7.21049 16.5436C7.21049 16.1894 6.70697 15.8804 5.96708 15.7232C7.16431 15.5768 8.01649 15.2018 8.01649 14.7627ZM19.2588 13.6649C19.2588 15.3771 18.096 16.8137 15.937 16.8137H13.8052V19.7141H11.0086V10.5016H15.9361C18.0951 10.5016 19.2579 11.9383 19.2579 13.664L19.2588 13.6649ZM16.4215 13.6649C16.4215 13.168 16.0475 12.9331 15.5775 12.9331H13.8052V14.3832H15.5775C16.0484 14.3832 16.4215 14.1483 16.4215 13.6649ZM20.7277 19.7132H27.7317V17.2827H23.5233V16.2743H27.6348V13.8438H23.5233V12.9322H27.7317V10.5016H20.7277V19.7132ZM35.6178 14.8657L32.4065 10.5016H29.5275V19.7132H32.3241V15.0455L35.7292 19.7132H38.4143V10.5016H35.6178V14.8657ZM82.6906 22H83.3771V8.00156H82.6906V22ZM143.27 12.7731V12.7795H143.234C143.234 12.7795 143.27 12.4912 143.27 12.1678V10.6733H141.19V19.3418H143.352V15.9048C143.352 15.3925 143.406 14.9217 143.541 14.4926C143.947 13.2041 144.99 12.6746 145.91 12.6746C146.198 12.6746 146.422 12.7099 146.422 12.7099V10.5857C146.422 10.5857 146.233 10.5504 146.027 10.5504C144.695 10.5504 143.658 11.5389 143.27 12.7749V12.7731ZM152.102 16.0457C151.931 16.558 151.813 17.1282 151.796 17.1282H151.761C151.761 17.1282 151.625 16.5517 151.454 16.0457L149.645 10.6733H147.365L150.517 19.3418H153.074L156.191 10.6733H153.911L152.102 16.0457ZM139.017 14.5856C139.017 14.8386 138.964 15.4151 138.964 15.4151H132.966C133.107 16.9276 134.28 17.71 135.576 17.71C136.972 17.71 138.08 16.7568 138.08 16.7568L138.917 18.3046C138.917 18.3046 137.585 19.546 135.423 19.546C132.542 19.546 130.751 17.4742 130.751 15.0085C130.751 12.343 132.571 10.4718 135.164 10.4718C137.756 10.4718 139.017 12.2897 139.017 14.5856ZM136.831 13.9387C136.796 12.7677 136.065 12.1379 135.11 12.1379C134.003 12.1379 133.237 12.8147 133.031 13.9387H136.831ZM164.947 15.416H158.949C159.085 16.9285 160.256 17.7109 161.553 17.7109C162.95 17.7109 164.057 16.7577 164.057 16.7577L164.894 18.3055C164.894 18.3055 163.562 19.5469 161.4 19.5469C158.519 19.5469 156.727 17.4751 156.727 15.0094C156.727 12.3439 158.548 10.4727 161.14 10.4727H161.147C163.656 10.4727 165 12.2906 165 14.5865C165 14.8395 164.947 15.416 164.947 15.416ZM162.814 13.9387C162.779 12.7677 162.048 12.1379 161.093 12.1379C159.986 12.1379 159.219 12.8147 159.014 13.9387H162.814ZM120.492 18.3461V18.3398C119.791 18.3398 118.613 18.0516 118.613 16.1216V11.9256H120.792V10.7844H118.613V8.28889H117.299V10.7899H116.138V11.931H117.281V16.2508C117.281 19.1223 119.225 19.5523 120.386 19.5523C120.704 19.5523 120.892 19.5171 120.904 19.5171L120.969 19.5054V18.2928L120.875 18.3109C120.875 18.3109 120.722 18.3461 120.492 18.3461ZM114.265 7.2182C113.357 7.2182 111.236 7.53624 111.236 10.4547V10.7844H110.075V11.903H111.236V19.3409H112.544V11.9021H114.73V10.7835H112.544V10.4538C112.544 9.68846 112.786 8.40002 114.383 8.40002C114.606 8.40002 114.772 8.43526 114.772 8.43526L114.866 8.45243V7.26518L114.801 7.25344C114.801 7.25344 114.589 7.2182 114.265 7.2182ZM109.126 14.957C109.126 17.523 107.106 19.5352 104.531 19.5352C101.957 19.5352 99.9417 17.476 99.9417 14.957C99.9417 12.4379 101.957 10.461 104.531 10.461C107.106 10.461 109.126 12.3909 109.126 14.957ZM107.783 14.957C107.783 13.1092 106.358 11.6618 104.531 11.6618C102.705 11.6618 101.279 13.0505 101.279 14.957C101.279 16.8634 102.711 18.3525 104.531 18.3525C106.352 18.3525 107.783 16.8047 107.783 14.957ZM95.8592 14.4266C94.834 14.0263 93.9501 13.6848 93.9501 12.8906C93.9501 11.9726 94.7869 11.6428 95.5703 11.6428C96.9251 11.6428 97.6441 12.39 97.6559 12.3964L97.7265 12.4668L98.3333 11.4485L98.298 11.407C98.2627 11.3654 97.4204 10.4474 95.6119 10.4474C94.1684 10.4474 92.6125 11.2064 92.6125 12.8779C92.6125 14.4555 94.0443 15.0202 95.3049 15.5199C96.3301 15.9256 97.2139 16.2734 97.2139 17.0613C97.2139 17.9441 96.3889 18.338 95.5766 18.338C94.0325 18.338 93.0961 17.3378 93.0844 17.3315L93.0191 17.2664L92.3001 18.226L92.3418 18.2729C92.3418 18.2729 92.6306 18.5964 93.1604 18.9081C93.6558 19.1964 94.4681 19.5379 95.5531 19.5379C97.2909 19.5379 98.5515 18.5024 98.5515 17.0721C98.5515 15.472 97.1198 14.9181 95.8592 14.4239V14.4266ZM125.1 13.0794L125.106 13.0912C125.106 12.55 125.654 12.3087 126.214 12.3087C127.546 12.3087 128.341 13.0559 128.341 13.0559L129.142 11.4549C129.142 11.4549 128.188 10.4664 126.225 10.4664C124.263 10.4664 122.903 11.4025 122.903 13.0144C122.903 15.8036 127.127 15.6328 127.127 16.9222C127.127 17.4345 126.597 17.7046 125.984 17.7046C124.57 17.7046 123.615 16.7514 123.615 16.7514L122.625 18.2639C122.625 18.2639 123.834 19.5352 126.002 19.5352C128.17 19.5352 129.324 18.3814 129.324 16.9339C129.324 14.1447 125.1 14.3037 125.1 13.0794Z" fill="white"/>
</g>
<defs>
<clipPath id="clip0_5883_20926">
<rect width="165" height="14.7818" fill="white" transform="translate(0 7.2182)"/>
</clipPath>
</defs>
</svg>
