<svg width="27" height="27" viewBox="0 0 27 27" fill="none" xmlns="http://www.w3.org/2000/svg">
<path d="M17.8165 4.89535C17.8165 5.97831 17.3863 7.01692 16.6205 7.7827C15.8548 8.54847 14.8161 8.97868 13.7332 8.97868C12.6502 8.97868 11.6116 8.54847 10.8458 7.7827C10.08 7.01692 9.64984 5.97831 9.64984 4.89535C9.64984 3.81238 10.08 2.77377 10.8458 2.00799C11.6116 1.24222 12.6502 0.812012 13.7332 0.812012C14.8161 0.812012 15.8548 1.24222 16.6205 2.00799C17.3863 2.77377 17.8165 3.81238 17.8165 4.89535ZM25.9832 5.71201C25.9832 6.57839 25.639 7.40928 25.0264 8.02189C24.4138 8.63451 23.5829 8.97868 22.7165 8.97868C21.8501 8.97868 21.0192 8.63451 20.4066 8.02189C19.794 7.40928 19.4498 6.57839 19.4498 5.71201C19.4498 4.84564 19.794 4.01475 20.4066 3.40213C21.0192 2.78951 21.8501 2.44535 22.7165 2.44535C23.5829 2.44535 24.4138 2.78951 25.0264 3.40213C25.639 4.01475 25.9832 4.84564 25.9832 5.71201ZM4.74984 8.97868C5.61621 8.97868 6.4471 8.63451 7.05972 8.02189C7.67234 7.40928 8.0165 6.57839 8.0165 5.71201C8.0165 4.84564 7.67234 4.01475 7.05972 3.40213C6.4471 2.78951 5.61621 2.44535 4.74984 2.44535C3.88346 2.44535 3.05257 2.78951 2.43995 3.40213C1.82734 4.01475 1.48317 4.84564 1.48317 5.71201C1.48317 6.57839 1.82734 7.40928 2.43995 8.02189C3.05257 8.63451 3.88346 8.97868 4.74984 8.97868ZM7.19984 12.6537C7.19984 11.5267 8.1145 10.612 9.2415 10.612H18.2248C19.3518 10.612 20.2665 11.5267 20.2665 12.6537V20.412C20.2665 22.1448 19.5782 23.8065 18.3529 25.0318C17.1277 26.257 15.4659 26.9453 13.7332 26.9453C12.0004 26.9453 10.3386 26.257 9.11341 25.0318C7.88817 23.8065 7.19984 22.1448 7.19984 20.412V12.6537ZM5.5665 12.6537C5.5665 11.8974 5.79517 11.1967 6.18554 10.612H2.70817C1.58117 10.612 0.666504 11.5267 0.666504 12.6537V18.7787C0.666428 19.4779 0.816017 20.1691 1.10522 20.8058C1.39442 21.4424 1.81654 22.0098 2.34321 22.4698C2.86988 22.9298 3.4889 23.2717 4.15868 23.4726C4.82846 23.6735 5.53348 23.7287 6.22637 23.6346C5.79012 22.6163 5.56561 21.5198 5.5665 20.412V12.6537ZM21.8998 20.412C21.8998 21.5553 21.6646 22.6464 21.24 23.6346C21.4556 23.664 21.6755 23.6787 21.8998 23.6787C23.1994 23.6787 24.4457 23.1624 25.3647 22.2435C26.2836 21.3246 26.7998 20.0782 26.7998 18.7787V12.6537C26.7998 11.5267 25.8852 10.612 24.7582 10.612H21.2808C21.6728 11.1967 21.8998 11.8974 21.8998 12.6537V20.412Z" fill="#232424"/>
</svg>
