<svg width="29" height="29" viewBox="0 0 29 29" fill="none" xmlns="http://www.w3.org/2000/svg">
<path d="M9.23013 21.8612L7.54029 20.1713C7.07544 19.7065 6.91138 19.0338 7.11919 18.4104C7.28326 17.9237 7.50201 17.2893 7.76451 16.562H1.97857C1.50826 16.562 1.07076 16.3104 0.8356 15.9002C0.600444 15.4901 0.605912 14.987 0.846537 14.5823L3.71763 9.74243C4.42857 8.54477 5.71372 7.81196 7.10279 7.81196H11.6036C11.7348 7.59321 11.8661 7.39086 11.9973 7.19399C16.4762 0.587738 23.1481 0.368989 27.1294 1.1018C27.7637 1.21665 28.2559 1.7143 28.3762 2.34868C29.109 6.33539 28.8848 13.0018 22.284 17.4807C22.0926 17.612 21.8848 17.7432 21.6661 17.8745V22.3752C21.6661 23.7643 20.9333 25.0549 19.7356 25.7604L14.8958 28.6315C14.4911 28.8721 13.9879 28.8776 13.5778 28.6424C13.1676 28.4073 12.9161 27.9752 12.9161 27.4995V21.637C12.145 21.9049 11.4723 22.1237 10.9637 22.2877C10.3512 22.4846 9.68404 22.3151 9.22466 21.8612H9.23013ZM21.6661 9.99946C22.2462 9.99946 22.8026 9.76899 23.2129 9.35875C23.6231 8.94852 23.8536 8.39212 23.8536 7.81196C23.8536 7.2318 23.6231 6.6754 23.2129 6.26516C22.8026 5.85493 22.2462 5.62446 21.6661 5.62446C21.0859 5.62446 20.5295 5.85493 20.1193 6.26516C19.709 6.6754 19.4786 7.2318 19.4786 7.81196C19.4786 8.39212 19.709 8.94852 20.1193 9.35875C20.5295 9.76899 21.0859 9.99946 21.6661 9.99946Z" fill="#232424"/>
</svg>
