<svg width="22" height="31" viewBox="0 0 22 31" fill="none" xmlns="http://www.w3.org/2000/svg">
<path d="M21.5776 11.0657L18.6847 1.24135C18.6198 1.02124 18.4855 0.828011 18.3018 0.69053C18.1181 0.553049 17.8949 0.478695 17.6654 0.478577H4.93752C4.70806 0.478695 4.48481 0.553049 4.3011 0.69053C4.11739 0.828011 3.9831 1.02124 3.91827 1.24135L1.02533 11.0657C0.571438 12.5715 0.547684 14.1742 0.956746 15.6928C1.36581 17.2114 2.19139 18.5854 3.34022 19.6595C5.23006 21.4316 7.65816 22.521 10.2384 22.7544V28.1191H5.98599C5.70404 28.1191 5.43364 28.2311 5.23427 28.4304C5.0349 28.6298 4.9229 28.9002 4.9229 29.1821C4.9229 29.4641 5.0349 29.7345 5.23427 29.9339C5.43364 30.1332 5.70404 30.2452 5.98599 30.2452H16.6169C16.8989 30.2452 17.1693 30.1332 17.3687 29.9339C17.568 29.7345 17.68 29.4641 17.68 29.1821C17.68 28.9002 17.568 28.6298 17.3687 28.4304C17.1693 28.2311 16.8989 28.1191 16.6169 28.1191H12.3646V22.7544C14.9448 22.521 17.3729 21.4316 19.2627 19.6595C20.4113 18.5852 21.2367 17.2112 21.6457 15.6927C22.0548 14.1742 22.0312 12.5715 21.5776 11.0657ZM5.73218 2.60477H16.8708L19.5405 11.6663C19.5524 11.7062 19.563 11.7461 19.5737 11.7859C16.7272 12.8065 13.522 11.5733 11.7825 10.6923C8.4351 8.99796 5.77736 8.78268 3.81728 9.10692L5.73218 2.60477Z" fill="#232424"/>
</svg>
